<svg version="1.1" id="Layer_1" xmlns="http://www.w3.org/2000/svg" x="0" y="0" viewBox="0 0 786.2 141" xml:space="preserve"><style>.st3{fill:#ff2b06}</style><path d="M10.8 151.9L3.2 141h7.2l4.1 6 4-6h7l-7.6 10.8 8.5 12.2h-7.2l-4.8-7.3-4.8 7.3H2.5l8.3-12.1z" fill="none"/><path class="st3" d="M29.8 27.1H.2V0H92v27.1H62.4v78.7H29.8V27.1zM97.1 0h89.2v27.1h-56.6v13.2h56.6v25.2h-56.6v13.2h56.6v27.1H97.1V0zm94.7 0h53.5C280.5 0 293 26.1 293 52.8c0 32.5-17.2 53.1-54.1 53.1h-47.1V0zm32.6 78.7h12.8c20.3 0 23.3-16.5 23.3-26.4 0-6.7-2.1-25.2-25.7-25.2h-10.4v51.6zM339.9 65L330 48.5 320.2 65h-23.9L319 31.7 297.2-.2h23.9l8.8 15.8L339-.2h23.9l-21.8 31.9L363.8 65h-23.9z"/><text transform="translate(382.5 105.816)" font-size="146.905" font-family="Helvetica" fill="#f5f5f5">Bestel</text></svg>