<?xml version="1.0" encoding="utf-8"?>
<!-- Generator: Adobe Illustrator 23.0.1, SVG Export Plug-In . SVG Version: 6.00 Build 0)  -->
<svg version="1.1" id="Layer_1" xmlns="http://www.w3.org/2000/svg" xmlns:xlink="http://www.w3.org/1999/xlink" x="0px" y="0px"
	 viewBox="0 0 1003 141" style="enable-background:new 0 0 1003 141;" xml:space="preserve">
<style type="text/css">
	.st0{display:none;}
	.st1{fill:none;}
	.st2{display:none;fill:#FFFFFF;}
	.st3{fill:#FF2B06;}
	.st4{fill:#F5F5F5;}
	.st5{font-family:'Helvetica';}
	.st6{font-size:146.905px;}
</style>
<path class="st0" d="M0-0.2h1144.8v172.3H0V-0.2z"/>
<path class="st1" d="M10.8,151.9L3.2,141h7.2l4.1,6l4-6h7l-7.6,10.8l8.5,12.2h-7.2l-4.8-7.3L9.6,164H2.5L10.8,151.9z"/>
<path class="st2" d="M56.3,150.4H33.9v-4.8h22.5v4.8C56.4,150.4,56.3,150.4,56.3,150.4z M56.3,159.9H33.9v-4.8h22.5v4.8
	C56.4,159.9,56.3,159.9,56.3,159.9z M73.6,137.5h-6.3v-5.2h6.3V137.5z M67.2,141h6.3v23h-6.3V141z M77.7,141h6v3.2h0.1
	c1.6-2.6,4.4-3.8,7-3.8c6.7,0,8.4,3.8,8.4,9.5V164h-6.3v-13c0-3.8-1.1-5.7-4.1-5.7c-3.4,0-4.9,1.9-4.9,6.6V164h-6.3v-23
	C77.6,141,77.7,141,77.7,141z M119.6,161.1c-1.6,2.5-4.1,3.6-7.1,3.6c-6.9,0-10.3-6-10.3-12.3c0-6.2,3.4-11.9,10.2-11.9
	c2.7,0,5.4,1.2,6.9,3.4h0.1v-11.6h6.3V164h-6L119.6,161.1z M114.1,145.2c-4.1,0-5.6,3.6-5.6,7.3c0,3.6,1.6,7.4,5.6,7.4
	c4.2,0,5.4-3.6,5.4-7.4C119.5,148.7,118.2,145.2,114.1,145.2z M134.7,154.1c0.2,4,2.1,5.8,5.7,5.8c2.5,0,4.6-1.6,5-3h5.6
	c-1.8,5.4-5.6,7.7-10.8,7.7c-7.3,0-11.8-5-11.8-12.1c0-6.9,4.8-12.2,11.8-12.2c7.8,0,11.6,6.6,11.2,13.7h-16.7V154.1z M145,150.1
	c-0.6-3.2-2-4.9-5-4.9c-4,0-5.2,3.1-5.3,4.9H145z M154.1,141h6v2.9h0.1c1.5-2.4,4-3.6,6.9-3.6c7.2,0,10.5,5.8,10.5,12.4
	c0,6.1-3.4,11.9-10.1,11.9c-2.8,0-5.4-1.2-6.9-3.5h-0.1V172h-6.3L154.1,141L154.1,141z M171.2,152.6c0-3.6-1.5-7.4-5.5-7.4
	c-4.1,0-5.5,3.7-5.5,7.4s1.4,7.3,5.5,7.3C169.9,159.9,171.2,156.3,171.2,152.6z M185.6,154.1c0.2,4,2.1,5.8,5.7,5.8
	c2.5,0,4.6-1.6,5-3h5.6c-1.8,5.4-5.6,7.7-10.8,7.7c-7.3,0-11.8-5-11.8-12.1c0-6.9,4.8-12.2,11.8-12.2c7.8,0,11.6,6.6,11.2,13.7
	h-16.7V154.1z M195.9,150.1c-0.6-3.2-2-4.9-5-4.9c-4,0-5.2,3.1-5.3,4.9H195.9z M205.1,141h6v3.2h0.1c1.6-2.6,4.4-3.8,7-3.8
	c6.7,0,8.4,3.8,8.4,9.5V164h-6.3v-13c0-3.8-1.1-5.7-4.1-5.7c-3.4,0-4.9,1.9-4.9,6.6V164H205v-23H205.1z M247,161.1
	c-1.6,2.5-4.1,3.6-7.1,3.6c-6.9,0-10.3-6-10.3-12.3c0-6.2,3.4-11.9,10.2-11.9c2.7,0,5.4,1.2,6.9,3.4h0.1v-11.6h6.3V164h-6L247,161.1
	L247,161.1z M241.5,145.2c-4.1,0-5.6,3.6-5.6,7.3c0,3.6,1.6,7.4,5.6,7.4c4.2,0,5.4-3.6,5.4-7.4C246.9,148.7,245.6,145.2,241.5,145.2
	z M262.1,154.1c0.2,4,2.1,5.8,5.7,5.8c2.5,0,4.6-1.6,5-3h5.6c-1.8,5.4-5.6,7.7-10.8,7.7c-7.3,0-11.8-5-11.8-12.1
	c0-6.9,4.8-12.2,11.8-12.2c7.8,0,11.6,6.6,11.2,13.7h-16.7L262.1,154.1L262.1,154.1z M272.4,150.1c-0.6-3.2-2-4.9-5-4.9
	c-4,0-5.2,3.1-5.3,4.9H272.4z M281.5,141h6v3.2h0.1c1.6-2.6,4.4-3.8,7-3.8c6.7,0,8.4,3.8,8.4,9.5V164h-6.3v-13
	c0-3.8-1.1-5.7-4.1-5.7c-3.4,0-4.9,1.9-4.9,6.6V164h-6.3L281.5,141L281.5,141z M315.1,141h4.6v4.2h-4.6v11.4c0,2.1,0.5,2.7,2.7,2.7
	c0.7,0,1.3,0,2-0.2v4.9c-1.1,0.2-2.4,0.2-3.7,0.2c-3.9,0-7.3-0.9-7.3-5.5v-13.6H305V141h3.8v-6.9h6.3L315.1,141L315.1,141z
	 M322,132.3h6.3V164H322V132.3z M343.8,166.9c-1.4,3.7-3.6,5.2-7.9,5.2c-1.3,0-2.6-0.1-3.9-0.2v-5.2c1.2,0.1,2.4,0.3,3.7,0.2
	c2.2-0.2,2.9-2.5,2.2-4.3l-8.1-21.6h6.8l5.2,15.8h0.1l5-15.8h6.5L343.8,166.9L343.8,166.9z M377.3,140.4c7.3,0,11.9,4.8,11.9,12.2
	c0,7.3-4.7,12.1-11.9,12.1s-11.9-4.8-11.9-12.1C365.4,145.2,370.1,140.4,377.3,140.4z M377.3,159.9c4.3,0,5.6-3.7,5.6-7.3
	c0-3.7-1.3-7.4-5.6-7.4s-5.6,3.7-5.6,7.4C371.7,156.2,373,159.9,377.3,159.9z M391.5,141h6v4.3h0.1c1.2-2.9,4.3-4.9,7.3-4.9
	c0.4,0,1,0.1,1.4,0.2v5.9c-0.6-0.1-1.5-0.2-2.3-0.2c-4.6,0-6.2,3.3-6.2,7.4V164h-6.3V141z M430.1,162.6c0,3.8-1.3,10.2-11.9,10.2
	c-4.5,0-9.8-2.1-10.1-7.4h6.3c0.6,2.4,2.5,3.2,4.7,3.2c3.5,0,5.1-2.4,5.1-5.7v-3H424c-1.4,2.4-4.1,3.6-6.9,3.6
	c-6.9,0-9.8-5.3-9.8-11.6c0-6,3.4-11.4,9.9-11.4c3,0,5.3,1,6.9,3.7h0.1V141h6v21.6H430.1z M424.1,152.2c0-3.7-1.3-7.1-5.4-7.1
	c-3.6,0-5.1,3.1-5.1,6.5c0,3.3,1.2,6.9,5.1,6.9C422.3,158.6,424.1,155.5,424.1,152.2L424.1,152.2z M433.1,148.1
	c0.4-5.9,5.7-7.7,10.8-7.7c4.6,0,10.1,1,10.1,6.5v12c0,2.1,0.2,4.2,0.8,5.1h-6.4c-0.2-0.7-0.4-1.5-0.4-2.2c-2,2.1-4.9,2.8-7.7,2.8
	c-4.4,0-7.8-2.2-7.8-6.9c0-5.2,3.9-6.5,7.8-7c3.9-0.6,7.5-0.4,7.5-3c0-2.7-1.9-3.1-4.1-3.1c-2.4,0-4,1-4.2,3.5L433.1,148.1
	L433.1,148.1z M447.7,152.8c-1.1,0.9-3.3,1-5.3,1.3c-2,0.4-3.7,1.1-3.7,3.4c0,2.4,1.8,2.9,3.9,2.9c4.9,0,5.1-3.9,5.1-5.3V152.8
	L447.7,152.8z M458,141h6v3.2h0.1c1.6-2.6,4.4-3.8,7-3.8c6.7,0,8.4,3.8,8.4,9.5V164h-6.3v-13c0-3.8-1.1-5.7-4.1-5.7
	c-3.4,0-4.9,1.9-4.9,6.6V164H458V141z M489.1,137.5h-6.3v-5.2h6.3V137.5z M482.8,141h6.3v23h-6.3V141z M491.8,159.3l12-13.5h-11.1
	V141h19.4v4.8l-12,13.5h12.8v4.8h-21.1L491.8,159.3L491.8,159.3z M520.6,154.1c0.2,4,2.1,5.8,5.7,5.8c2.5,0,4.6-1.6,5-3h5.6
	c-1.8,5.4-5.6,7.7-10.8,7.7c-7.3,0-11.8-5-11.8-12.1c0-6.9,4.8-12.2,11.8-12.2c7.8,0,11.6,6.6,11.2,13.7h-16.7V154.1z M530.9,150.1
	c-0.6-3.2-2-4.9-5-4.9c-4,0-5.2,3.1-5.3,4.9H530.9z M556.5,161.1c-1.6,2.5-4.1,3.6-7.1,3.6c-6.9,0-10.3-6-10.3-12.3
	c0-6.2,3.4-11.9,10.2-11.9c2.7,0,5.4,1.2,6.9,3.4h0.1v-11.6h6.3V164h-6v-2.9H556.5L556.5,161.1z M551,145.2c-4.1,0-5.6,3.6-5.6,7.3
	c0,3.6,1.6,7.4,5.6,7.4c4.2,0,5.4-3.6,5.4-7.4C556.4,148.7,555.1,145.2,551,145.2z M585.6,138.1H576v-5.9h26v5.9h-9.5V164h-7
	L585.6,138.1z M604.8,132.3h23.8v5.9h-16.8v6.8h15.4v5.4h-15.4v7.8H629v5.9h-24.1v-31.8L604.8,132.3L604.8,132.3z M631.9,132.3h13.7
	c8.2,0,14.4,5.2,14.4,15.7c0,9.2-4.7,16.1-14.4,16.1h-13.7V132.3z M638.9,158.2h6.2c4,0,7.9-2.5,7.9-9.5c0-6.4-2.2-10.5-9.2-10.5h-5
	L638.9,158.2z M680,154.1c0.2,4,2.1,5.8,5.7,5.8c2.5,0,4.6-1.6,5-3h5.6c-1.8,5.4-5.6,7.7-10.8,7.7c-7.3,0-11.8-5-11.8-12.1
	c0-6.9,4.8-12.2,11.8-12.2c7.8,0,11.6,6.6,11.2,13.7H680V154.1z M690.3,150.1c-0.6-3.2-2-4.9-5-4.9c-4,0-5.2,3.1-5.3,4.9H690.3z
	 M711.3,164h-7l-7.9-23h6.6l4.9,15.7h0.1l4.9-15.7h6.3L711.3,164L711.3,164z M725.1,154.1c0.2,4,2.1,5.8,5.7,5.8c2.5,0,4.6-1.6,5-3
	h5.6c-1.8,5.4-5.6,7.7-10.8,7.7c-7.3,0-11.8-5-11.8-12.1c0-6.9,4.8-12.2,11.8-12.2c7.8,0,11.6,6.6,11.2,13.7h-16.7V154.1z
	 M735.4,150.1c-0.6-3.2-2-4.9-5-4.9c-4,0-5.2,3.1-5.3,4.9H735.4z M744.6,141h6v3.2h0.1c1.6-2.6,4.4-3.8,7-3.8c6.7,0,8.4,3.8,8.4,9.5
	V164h-6.3v-13c0-3.8-1.1-5.7-4.1-5.7c-3.4,0-4.9,1.9-4.9,6.6V164h-6.3L744.6,141z M778.1,141h4.6v4.2h-4.6v11.4
	c0,2.1,0.5,2.7,2.7,2.7c0.7,0,1.3,0,2-0.2v4.9c-1.1,0.2-2.4,0.2-3.7,0.2c-3.9,0-7.3-0.9-7.3-5.5v-13.6H768V141h3.8v-6.9h6.3V141z"/>
<path class="st3" d="M29.8,27.1H0.2V0H92v27.1H62.4v78.7H29.8V27.1z M97.1,0h89.2v27.1h-56.6v13.2h56.6v25.2h-56.6v13.2h56.6v27.1
	H97.1V0z M191.8,0h53.5C280.5,0,293,26.1,293,52.8c0,32.5-17.2,53.1-54.1,53.1h-47.1L191.8,0L191.8,0z M224.4,78.7h12.8
	c20.3,0,23.3-16.5,23.3-26.4c0-6.7-2.1-25.2-25.7-25.2h-10.4L224.4,78.7L224.4,78.7z"/>
<g>
	<path class="st3" d="M339.9,65L330,48.5L320.2,65h-23.9L319,31.7L297.2-0.2h23.9l8.8,15.8L339-0.2h23.9l-21.8,31.9L363.8,65H339.9z
		"/>
</g>
<text transform="matrix(1 0 0 1 382.5 105.816)" class="st4 st5 st6">Wachtlijst</text>
</svg>
