<?xml version="1.0" encoding="utf-8"?>
<!-- Generator: Adobe Illustrator 23.1.0, SVG Export Plug-In . SVG Version: 6.00 Build 0)  -->
<svg version="1.1" id="Layer_1" xmlns="http://www.w3.org/2000/svg" xmlns:xlink="http://www.w3.org/1999/xlink" x="0px" y="0px"
	 viewBox="0 0 1203.3 141" style="enable-background:new 0 0 1203.3 141;" xml:space="preserve">
<style type="text/css">
	.st0{fill:none;}
	.st1{fill:#FF2B06;}
	.st2{fill:#F5F5F5;}
	.st3{font-family:'Helvetica';}
	.st4{font-size:146.905px;}
</style>
<path class="st0" d="M10.8,151.9L3.2,141h7.2l4.1,6l4-6h7l-7.6,10.8l8.5,12.2h-7.2l-4.8-7.3L9.6,164H2.5L10.8,151.9z"/>
<path class="st1" d="M29.8,27.1H0.2V0H92v27.1H62.4v78.7H29.8V27.1z M97.1,0h89.2v27.1h-56.6v13.2h56.6v25.2h-56.6v13.2h56.6v27.1
	H97.1V0z M191.8,0h53.5C280.5,0,293,26.1,293,52.8c0,32.5-17.2,53.1-54.1,53.1h-47.1V0z M224.4,78.7h12.8
	c20.3,0,23.3-16.5,23.3-26.4c0-6.7-2.1-25.2-25.7-25.2h-10.4L224.4,78.7L224.4,78.7z M339.9,65L330,48.5L320.2,65h-23.9L319,31.7
	L297.2-0.2h23.9l8.8,15.8L339-0.2h23.9l-21.8,31.9L363.8,65H339.9z"/>
<text transform="matrix(1 0 0 1 382.5 105.816)" class="st2 st3 st4">2020 Tickets</text>
</svg>
