<svg id="Layer_1" xmlns="http://www.w3.org/2000/svg" viewBox="0 0 1144.8 172.8"><style>.st0,.st2{display:none}.st2{fill:#fff}.st3{fill:#ff2b06}</style><path class="st0" d="M0-.2h1144.8v172.3H0z"/><path d="M10.8 151.9L3.2 141h7.2l4.1 6 4-6h7l-7.6 10.8 8.5 12.2h-7.2l-4.8-7.3-4.8 7.3H2.5l8.3-12.1z" fill="none"/><path class="st2" d="M56.3 150.4H33.9v-4.8h22.5v4.8h-.1zm0 9.5H33.9v-4.8h22.5v4.8h-.1zM73.6 137.5h-6.3v-5.2h6.3v5.2zm-6.4 3.5h6.3v23h-6.3v-23zM77.7 141h6v3.2h.1c1.6-2.6 4.4-3.8 7-3.8 6.7 0 8.4 3.8 8.4 9.5V164h-6.3v-13c0-3.8-1.1-5.7-4.1-5.7-3.4 0-4.9 1.9-4.9 6.6V164h-6.3v-23h.1zM119.6 161.1c-1.6 2.5-4.1 3.6-7.1 3.6-6.9 0-10.3-6-10.3-12.3 0-6.2 3.4-11.9 10.2-11.9 2.7 0 5.4 1.2 6.9 3.4h.1v-11.6h6.3V164h-6l-.1-2.9zm-5.5-15.9c-4.1 0-5.6 3.6-5.6 7.3 0 3.6 1.6 7.4 5.6 7.4 4.2 0 5.4-3.6 5.4-7.4 0-3.8-1.3-7.3-5.4-7.3zM134.7 154.1c.2 4 2.1 5.8 5.7 5.8 2.5 0 4.6-1.6 5-3h5.6c-1.8 5.4-5.6 7.7-10.8 7.7-7.3 0-11.8-5-11.8-12.1 0-6.9 4.8-12.2 11.8-12.2 7.8 0 11.6 6.6 11.2 13.7h-16.7v.1zm10.3-4c-.6-3.2-2-4.9-5-4.9-4 0-5.2 3.1-5.3 4.9H145zM154.1 141h6v2.9h.1c1.5-2.4 4-3.6 6.9-3.6 7.2 0 10.5 5.8 10.5 12.4 0 6.1-3.4 11.9-10.1 11.9-2.8 0-5.4-1.2-6.9-3.5h-.1V172h-6.3l-.1-31zm17.1 11.6c0-3.6-1.5-7.4-5.5-7.4-4.1 0-5.5 3.7-5.5 7.4s1.4 7.3 5.5 7.3c4.2 0 5.5-3.6 5.5-7.3zM185.6 154.1c.2 4 2.1 5.8 5.7 5.8 2.5 0 4.6-1.6 5-3h5.6c-1.8 5.4-5.6 7.7-10.8 7.7-7.3 0-11.8-5-11.8-12.1 0-6.9 4.8-12.2 11.8-12.2 7.8 0 11.6 6.6 11.2 13.7h-16.7v.1zm10.3-4c-.6-3.2-2-4.9-5-4.9-4 0-5.2 3.1-5.3 4.9h10.3zM205.1 141h6v3.2h.1c1.6-2.6 4.4-3.8 7-3.8 6.7 0 8.4 3.8 8.4 9.5V164h-6.3v-13c0-3.8-1.1-5.7-4.1-5.7-3.4 0-4.9 1.9-4.9 6.6V164H205v-23h.1zM247 161.1c-1.6 2.5-4.1 3.6-7.1 3.6-6.9 0-10.3-6-10.3-12.3 0-6.2 3.4-11.9 10.2-11.9 2.7 0 5.4 1.2 6.9 3.4h.1v-11.6h6.3V164h-6l-.1-2.9zm-5.5-15.9c-4.1 0-5.6 3.6-5.6 7.3 0 3.6 1.6 7.4 5.6 7.4 4.2 0 5.4-3.6 5.4-7.4 0-3.8-1.3-7.3-5.4-7.3zM262.1 154.1c.2 4 2.1 5.8 5.7 5.8 2.5 0 4.6-1.6 5-3h5.6c-1.8 5.4-5.6 7.7-10.8 7.7-7.3 0-11.8-5-11.8-12.1 0-6.9 4.8-12.2 11.8-12.2 7.8 0 11.6 6.6 11.2 13.7h-16.7v.1zm10.3-4c-.6-3.2-2-4.9-5-4.9-4 0-5.2 3.1-5.3 4.9h10.3zM281.5 141h6v3.2h.1c1.6-2.6 4.4-3.8 7-3.8 6.7 0 8.4 3.8 8.4 9.5V164h-6.3v-13c0-3.8-1.1-5.7-4.1-5.7-3.4 0-4.9 1.9-4.9 6.6V164h-6.3l.1-23zM315.1 141h4.6v4.2h-4.6v11.4c0 2.1.5 2.7 2.7 2.7.7 0 1.3 0 2-.2v4.9c-1.1.2-2.4.2-3.7.2-3.9 0-7.3-.9-7.3-5.5v-13.6H305V141h3.8v-6.9h6.3v6.9zM322 132.3h6.3V164H322v-31.7zM343.8 166.9c-1.4 3.7-3.6 5.2-7.9 5.2-1.3 0-2.6-.1-3.9-.2v-5.2c1.2.1 2.4.3 3.7.2 2.2-.2 2.9-2.5 2.2-4.3l-8.1-21.6h6.8l5.2 15.8h.1l5-15.8h6.5l-9.6 25.9zM377.3 140.4c7.3 0 11.9 4.8 11.9 12.2 0 7.3-4.7 12.1-11.9 12.1s-11.9-4.8-11.9-12.1c0-7.4 4.7-12.2 11.9-12.2zm0 19.5c4.3 0 5.6-3.7 5.6-7.3 0-3.7-1.3-7.4-5.6-7.4s-5.6 3.7-5.6 7.4c0 3.6 1.3 7.3 5.6 7.3zM391.5 141h6v4.3h.1c1.2-2.9 4.3-4.9 7.3-4.9.4 0 1 .1 1.4.2v5.9c-.6-.1-1.5-.2-2.3-.2-4.6 0-6.2 3.3-6.2 7.4V164h-6.3v-23zM430.1 162.6c0 3.8-1.3 10.2-11.9 10.2-4.5 0-9.8-2.1-10.1-7.4h6.3c.6 2.4 2.5 3.2 4.7 3.2 3.5 0 5.1-2.4 5.1-5.7v-3h-.2c-1.4 2.4-4.1 3.6-6.9 3.6-6.9 0-9.8-5.3-9.8-11.6 0-6 3.4-11.4 9.9-11.4 3 0 5.3 1 6.9 3.7h.1V141h6v21.6h-.1zm-6-10.4c0-3.7-1.3-7.1-5.4-7.1-3.6 0-5.1 3.1-5.1 6.5 0 3.3 1.2 6.9 5.1 6.9 3.6.1 5.4-3 5.4-6.3zM433.1 148.1c.4-5.9 5.7-7.7 10.8-7.7 4.6 0 10.1 1 10.1 6.5v12c0 2.1.2 4.2.8 5.1h-6.4c-.2-.7-.4-1.5-.4-2.2-2 2.1-4.9 2.8-7.7 2.8-4.4 0-7.8-2.2-7.8-6.9 0-5.2 3.9-6.5 7.8-7 3.9-.6 7.5-.4 7.5-3 0-2.7-1.9-3.1-4.1-3.1-2.4 0-4 1-4.2 3.5h-6.4zm14.6 4.7c-1.1.9-3.3 1-5.3 1.3-2 .4-3.7 1.1-3.7 3.4 0 2.4 1.8 2.9 3.9 2.9 4.9 0 5.1-3.9 5.1-5.3v-2.3zM458 141h6v3.2h.1c1.6-2.6 4.4-3.8 7-3.8 6.7 0 8.4 3.8 8.4 9.5V164h-6.3v-13c0-3.8-1.1-5.7-4.1-5.7-3.4 0-4.9 1.9-4.9 6.6V164H458v-23zM489.1 137.5h-6.3v-5.2h6.3v5.2zm-6.3 3.5h6.3v23h-6.3v-23zM491.8 159.3l12-13.5h-11.1V141h19.4v4.8l-12 13.5h12.8v4.8h-21.1v-4.8zM520.6 154.1c.2 4 2.1 5.8 5.7 5.8 2.5 0 4.6-1.6 5-3h5.6c-1.8 5.4-5.6 7.7-10.8 7.7-7.3 0-11.8-5-11.8-12.1 0-6.9 4.8-12.2 11.8-12.2 7.8 0 11.6 6.6 11.2 13.7h-16.7v.1zm10.3-4c-.6-3.2-2-4.9-5-4.9-4 0-5.2 3.1-5.3 4.9h10.3zM556.5 161.1c-1.6 2.5-4.1 3.6-7.1 3.6-6.9 0-10.3-6-10.3-12.3 0-6.2 3.4-11.9 10.2-11.9 2.7 0 5.4 1.2 6.9 3.4h.1v-11.6h6.3V164h-6v-2.9h-.1zm-5.5-15.9c-4.1 0-5.6 3.6-5.6 7.3 0 3.6 1.6 7.4 5.6 7.4 4.2 0 5.4-3.6 5.4-7.4 0-3.8-1.3-7.3-5.4-7.3zM585.6 138.1H576v-5.9h26v5.9h-9.5V164h-7l.1-25.9zM604.8 132.3h23.8v5.9h-16.8v6.8h15.4v5.4h-15.4v7.8H629v5.9h-24.1v-31.8h-.1zM631.9 132.3h13.7c8.2 0 14.4 5.2 14.4 15.7 0 9.2-4.7 16.1-14.4 16.1h-13.7v-31.8zm7 25.9h6.2c4 0 7.9-2.5 7.9-9.5 0-6.4-2.2-10.5-9.2-10.5h-5l.1 20zM680 154.1c.2 4 2.1 5.8 5.7 5.8 2.5 0 4.6-1.6 5-3h5.6c-1.8 5.4-5.6 7.7-10.8 7.7-7.3 0-11.8-5-11.8-12.1 0-6.9 4.8-12.2 11.8-12.2 7.8 0 11.6 6.6 11.2 13.7H680v.1zm10.3-4c-.6-3.2-2-4.9-5-4.9-4 0-5.2 3.1-5.3 4.9h10.3zM711.3 164h-7l-7.9-23h6.6l4.9 15.7h.1l4.9-15.7h6.3l-7.9 23zM725.1 154.1c.2 4 2.1 5.8 5.7 5.8 2.5 0 4.6-1.6 5-3h5.6c-1.8 5.4-5.6 7.7-10.8 7.7-7.3 0-11.8-5-11.8-12.1 0-6.9 4.8-12.2 11.8-12.2 7.8 0 11.6 6.6 11.2 13.7h-16.7v.1zm10.3-4c-.6-3.2-2-4.9-5-4.9-4 0-5.2 3.1-5.3 4.9h10.3zM744.6 141h6v3.2h.1c1.6-2.6 4.4-3.8 7-3.8 6.7 0 8.4 3.8 8.4 9.5V164h-6.3v-13c0-3.8-1.1-5.7-4.1-5.7-3.4 0-4.9 1.9-4.9 6.6V164h-6.3l.1-23zM778.1 141h4.6v4.2h-4.6v11.4c0 2.1.5 2.7 2.7 2.7.7 0 1.3 0 2-.2v4.9c-1.1.2-2.4.2-3.7.2-3.9 0-7.3-.9-7.3-5.5v-13.6H768V141h3.8v-6.9h6.3v6.9z"/><path class="st3" d="M29.8 27.1H.2V0H92v27.1H62.4v78.7H29.8V27.1zM97.1 0h89.2v27.1h-56.6v13.2h56.6v25.2h-56.6v13.2h56.6v27.1H97.1V0zM191.8 0h53.5C280.5 0 293 26.1 293 52.8c0 32.5-17.2 53.1-54.1 53.1h-47.1V0zm32.6 78.7h12.8c20.3 0 23.3-16.5 23.3-26.4 0-6.7-2.1-25.2-25.7-25.2h-10.4v51.6z"/><g><path class="st3" d="M339.9 65L330 48.5 320.2 65h-23.9L319 31.7 297.2-.2h23.9l8.8 15.8L339-.2h23.9l-21.8 31.9L363.8 65h-23.9z"/></g><text transform="translate(382.5 105.816)" font-size="146.905" font-family="Helvetica" fill="#f5f5f5">Voorinschrijving</text></svg>